<mxfile host="Electron" agent="Mozilla/5.0 (Windows NT 10.0; Win64; x64) AppleWebKit/537.36 (KHTML, like Gecko) draw.io/25.0.2 Chrome/128.0.6613.186 Electron/32.2.5 Safari/537.36" version="25.0.2">
  <diagram name="Página-1" id="ZO6OrSRdYTbqUF04YpJF">
    <mxGraphModel dx="1687" dy="984" grid="1" gridSize="10" guides="1" tooltips="1" connect="1" arrows="1" fold="1" page="1" pageScale="1" pageWidth="827" pageHeight="1169" math="0" shadow="0">
      <root>
        <mxCell id="0" />
        <mxCell id="1" parent="0" />
        <mxCell id="cl1IgAbXvulnULGIFVQT-33" value="" style="edgeStyle=orthogonalEdgeStyle;rounded=0;orthogonalLoop=1;jettySize=auto;html=1;entryX=0.539;entryY=-0.015;entryDx=0;entryDy=0;entryPerimeter=0;" edge="1" parent="1" source="rdkY3RSzwIZt0Yvgywsm-1" target="cl1IgAbXvulnULGIFVQT-1">
          <mxGeometry relative="1" as="geometry" />
        </mxCell>
        <mxCell id="rdkY3RSzwIZt0Yvgywsm-1" value="INÍCIO" style="ellipse;whiteSpace=wrap;html=1;" parent="1" vertex="1">
          <mxGeometry x="336" y="200" width="120" height="40" as="geometry" />
        </mxCell>
        <mxCell id="IKrL7wBLNmTFfv4xlvYs-5" value="&lt;span style=&quot;background-color: initial;&quot;&gt;CRIAR AS VARIÁVEIS PRODUTO, VALOR E ESTADO&lt;/span&gt;&lt;br&gt;&lt;span style=&quot;background-color: initial;&quot;&gt;RECEBER OS DADOS NAS VARIÁVEIS&lt;/span&gt;&lt;br&gt;&lt;span style=&quot;background-color: initial;&quot;&gt;DETERMINAR O VALOR DO FRETE&lt;/span&gt;&lt;br&gt;&lt;ul&gt;&lt;li&gt;SE ESTADO = SP -&amp;gt; 10%&lt;/li&gt;&lt;li&gt;SE ESTADO = MG -&amp;gt; 15%&lt;/li&gt;&lt;li&gt;SE ESTADO = RJ -&amp;gt; 20%&lt;/li&gt;&lt;ul&gt;&lt;li&gt;CASO CONTRÁRIO, NÃO É POSSÍVEL ENTREGAR, RETIRAR NA LOJA&lt;/li&gt;&lt;/ul&gt;&lt;li&gt;MOSTRAR OS ITENS:&lt;/li&gt;&lt;ul&gt;&lt;li&gt;PRODUTO, VALOR, ESTADO E VALOR DO FRETE&lt;/li&gt;&lt;/ul&gt;&lt;/ul&gt;" style="rounded=1;whiteSpace=wrap;html=1;align=left;" parent="1" vertex="1">
          <mxGeometry x="151.5" y="10" width="481" height="180" as="geometry" />
        </mxCell>
        <mxCell id="cl1IgAbXvulnULGIFVQT-41" value="" style="edgeStyle=orthogonalEdgeStyle;rounded=0;orthogonalLoop=1;jettySize=auto;html=1;" edge="1" parent="1" source="cl1IgAbXvulnULGIFVQT-1" target="cl1IgAbXvulnULGIFVQT-2">
          <mxGeometry relative="1" as="geometry" />
        </mxCell>
        <mxCell id="cl1IgAbXvulnULGIFVQT-1" value="PRODUTO" style="shape=parallelogram;html=1;strokeWidth=2;perimeter=parallelogramPerimeter;whiteSpace=wrap;rounded=1;arcSize=12;size=0.23;" vertex="1" parent="1">
          <mxGeometry x="316" y="300" width="148" height="30" as="geometry" />
        </mxCell>
        <mxCell id="cl1IgAbXvulnULGIFVQT-42" value="" style="edgeStyle=orthogonalEdgeStyle;rounded=0;orthogonalLoop=1;jettySize=auto;html=1;" edge="1" parent="1" source="cl1IgAbXvulnULGIFVQT-2" target="cl1IgAbXvulnULGIFVQT-3">
          <mxGeometry relative="1" as="geometry" />
        </mxCell>
        <mxCell id="cl1IgAbXvulnULGIFVQT-2" value="VALOR" style="shape=parallelogram;html=1;strokeWidth=2;perimeter=parallelogramPerimeter;whiteSpace=wrap;rounded=1;arcSize=12;size=0.23;" vertex="1" parent="1">
          <mxGeometry x="316" y="380" width="148" height="30" as="geometry" />
        </mxCell>
        <mxCell id="cl1IgAbXvulnULGIFVQT-43" value="" style="edgeStyle=orthogonalEdgeStyle;rounded=0;orthogonalLoop=1;jettySize=auto;html=1;" edge="1" parent="1" source="cl1IgAbXvulnULGIFVQT-3" target="cl1IgAbXvulnULGIFVQT-6">
          <mxGeometry relative="1" as="geometry" />
        </mxCell>
        <mxCell id="cl1IgAbXvulnULGIFVQT-3" value="ESTADO" style="shape=parallelogram;html=1;strokeWidth=2;perimeter=parallelogramPerimeter;whiteSpace=wrap;rounded=1;arcSize=12;size=0.23;" vertex="1" parent="1">
          <mxGeometry x="316" y="450" width="148" height="30" as="geometry" />
        </mxCell>
        <mxCell id="cl1IgAbXvulnULGIFVQT-17" value="" style="edgeStyle=orthogonalEdgeStyle;rounded=0;orthogonalLoop=1;jettySize=auto;html=1;" edge="1" parent="1" source="cl1IgAbXvulnULGIFVQT-5" target="cl1IgAbXvulnULGIFVQT-6">
          <mxGeometry relative="1" as="geometry" />
        </mxCell>
        <mxCell id="cl1IgAbXvulnULGIFVQT-5" value="MOVE 0 FRETE" style="rounded=1;whiteSpace=wrap;html=1;" vertex="1" parent="1">
          <mxGeometry x="297" y="510" width="186" height="30" as="geometry" />
        </mxCell>
        <mxCell id="cl1IgAbXvulnULGIFVQT-12" value="" style="edgeStyle=orthogonalEdgeStyle;rounded=0;orthogonalLoop=1;jettySize=auto;html=1;" edge="1" parent="1" source="cl1IgAbXvulnULGIFVQT-6" target="cl1IgAbXvulnULGIFVQT-9">
          <mxGeometry relative="1" as="geometry" />
        </mxCell>
        <mxCell id="cl1IgAbXvulnULGIFVQT-18" value="" style="edgeStyle=orthogonalEdgeStyle;rounded=0;orthogonalLoop=1;jettySize=auto;html=1;" edge="1" parent="1" source="cl1IgAbXvulnULGIFVQT-6" target="cl1IgAbXvulnULGIFVQT-7">
          <mxGeometry relative="1" as="geometry" />
        </mxCell>
        <mxCell id="cl1IgAbXvulnULGIFVQT-6" value="ESTADO = SP?" style="rhombus;whiteSpace=wrap;html=1;" vertex="1" parent="1">
          <mxGeometry x="336" y="570" width="108" height="70" as="geometry" />
        </mxCell>
        <mxCell id="cl1IgAbXvulnULGIFVQT-13" value="" style="edgeStyle=orthogonalEdgeStyle;rounded=0;orthogonalLoop=1;jettySize=auto;html=1;" edge="1" parent="1" source="cl1IgAbXvulnULGIFVQT-7" target="cl1IgAbXvulnULGIFVQT-10">
          <mxGeometry relative="1" as="geometry" />
        </mxCell>
        <mxCell id="cl1IgAbXvulnULGIFVQT-16" value="" style="edgeStyle=orthogonalEdgeStyle;rounded=0;orthogonalLoop=1;jettySize=auto;html=1;" edge="1" parent="1" source="cl1IgAbXvulnULGIFVQT-7" target="cl1IgAbXvulnULGIFVQT-8">
          <mxGeometry relative="1" as="geometry" />
        </mxCell>
        <mxCell id="cl1IgAbXvulnULGIFVQT-7" value="ESTADO = MG?" style="rhombus;whiteSpace=wrap;html=1;" vertex="1" parent="1">
          <mxGeometry x="338" y="665" width="108" height="70" as="geometry" />
        </mxCell>
        <mxCell id="cl1IgAbXvulnULGIFVQT-14" value="" style="edgeStyle=orthogonalEdgeStyle;rounded=0;orthogonalLoop=1;jettySize=auto;html=1;" edge="1" parent="1" source="cl1IgAbXvulnULGIFVQT-8" target="cl1IgAbXvulnULGIFVQT-11">
          <mxGeometry relative="1" as="geometry" />
        </mxCell>
        <mxCell id="cl1IgAbXvulnULGIFVQT-28" value="" style="edgeStyle=orthogonalEdgeStyle;rounded=0;orthogonalLoop=1;jettySize=auto;html=1;" edge="1" parent="1" source="cl1IgAbXvulnULGIFVQT-8" target="cl1IgAbXvulnULGIFVQT-27">
          <mxGeometry relative="1" as="geometry" />
        </mxCell>
        <mxCell id="cl1IgAbXvulnULGIFVQT-8" value="ESTADO = RJ?" style="rhombus;whiteSpace=wrap;html=1;" vertex="1" parent="1">
          <mxGeometry x="338" y="765" width="108" height="70" as="geometry" />
        </mxCell>
        <mxCell id="cl1IgAbXvulnULGIFVQT-22" value="" style="edgeStyle=orthogonalEdgeStyle;rounded=0;orthogonalLoop=1;jettySize=auto;html=1;" edge="1" parent="1" source="cl1IgAbXvulnULGIFVQT-9" target="cl1IgAbXvulnULGIFVQT-19">
          <mxGeometry relative="1" as="geometry" />
        </mxCell>
        <mxCell id="cl1IgAbXvulnULGIFVQT-9" value="FRETE = VALOR * 10%" style="rounded=1;whiteSpace=wrap;html=1;" vertex="1" parent="1">
          <mxGeometry x="482" y="590" width="167" height="30" as="geometry" />
        </mxCell>
        <mxCell id="cl1IgAbXvulnULGIFVQT-25" value="" style="edgeStyle=orthogonalEdgeStyle;rounded=0;orthogonalLoop=1;jettySize=auto;html=1;" edge="1" parent="1" source="cl1IgAbXvulnULGIFVQT-10" target="cl1IgAbXvulnULGIFVQT-20">
          <mxGeometry relative="1" as="geometry" />
        </mxCell>
        <mxCell id="cl1IgAbXvulnULGIFVQT-10" value="FRETE = VALOR * 15%" style="rounded=1;whiteSpace=wrap;html=1;" vertex="1" parent="1">
          <mxGeometry x="482" y="685" width="167" height="30" as="geometry" />
        </mxCell>
        <mxCell id="cl1IgAbXvulnULGIFVQT-26" value="" style="edgeStyle=orthogonalEdgeStyle;rounded=0;orthogonalLoop=1;jettySize=auto;html=1;" edge="1" parent="1" source="cl1IgAbXvulnULGIFVQT-11" target="cl1IgAbXvulnULGIFVQT-21">
          <mxGeometry relative="1" as="geometry" />
        </mxCell>
        <mxCell id="cl1IgAbXvulnULGIFVQT-11" value="FRETE = VALOR * 20%" style="rounded=1;whiteSpace=wrap;html=1;" vertex="1" parent="1">
          <mxGeometry x="482" y="785" width="167" height="30" as="geometry" />
        </mxCell>
        <mxCell id="cl1IgAbXvulnULGIFVQT-23" value="" style="edgeStyle=orthogonalEdgeStyle;rounded=0;orthogonalLoop=1;jettySize=auto;html=1;" edge="1" parent="1" source="cl1IgAbXvulnULGIFVQT-19" target="cl1IgAbXvulnULGIFVQT-20">
          <mxGeometry relative="1" as="geometry" />
        </mxCell>
        <mxCell id="cl1IgAbXvulnULGIFVQT-19" value="" style="ellipse;whiteSpace=wrap;html=1;aspect=fixed;" vertex="1" parent="1">
          <mxGeometry x="700" y="590" width="30" height="30" as="geometry" />
        </mxCell>
        <mxCell id="cl1IgAbXvulnULGIFVQT-24" value="" style="edgeStyle=orthogonalEdgeStyle;rounded=0;orthogonalLoop=1;jettySize=auto;html=1;" edge="1" parent="1" source="cl1IgAbXvulnULGIFVQT-20" target="cl1IgAbXvulnULGIFVQT-21">
          <mxGeometry relative="1" as="geometry" />
        </mxCell>
        <mxCell id="cl1IgAbXvulnULGIFVQT-20" value="" style="ellipse;whiteSpace=wrap;html=1;aspect=fixed;" vertex="1" parent="1">
          <mxGeometry x="700" y="685" width="30" height="30" as="geometry" />
        </mxCell>
        <mxCell id="cl1IgAbXvulnULGIFVQT-45" value="" style="edgeStyle=orthogonalEdgeStyle;rounded=0;orthogonalLoop=1;jettySize=auto;html=1;entryX=1;entryY=0.5;entryDx=0;entryDy=0;" edge="1" parent="1" source="cl1IgAbXvulnULGIFVQT-21" target="cl1IgAbXvulnULGIFVQT-27">
          <mxGeometry relative="1" as="geometry">
            <mxPoint x="715" y="895" as="targetPoint" />
            <Array as="points">
              <mxPoint x="715" y="885" />
            </Array>
          </mxGeometry>
        </mxCell>
        <mxCell id="cl1IgAbXvulnULGIFVQT-21" value="" style="ellipse;whiteSpace=wrap;html=1;aspect=fixed;" vertex="1" parent="1">
          <mxGeometry x="700" y="785" width="30" height="30" as="geometry" />
        </mxCell>
        <mxCell id="cl1IgAbXvulnULGIFVQT-46" value="" style="edgeStyle=orthogonalEdgeStyle;rounded=0;orthogonalLoop=1;jettySize=auto;html=1;" edge="1" parent="1" source="cl1IgAbXvulnULGIFVQT-27" target="cl1IgAbXvulnULGIFVQT-35">
          <mxGeometry relative="1" as="geometry" />
        </mxCell>
        <mxCell id="cl1IgAbXvulnULGIFVQT-27" value="" style="ellipse;whiteSpace=wrap;html=1;aspect=fixed;" vertex="1" parent="1">
          <mxGeometry x="375" y="870" width="30" height="30" as="geometry" />
        </mxCell>
        <mxCell id="cl1IgAbXvulnULGIFVQT-54" value="" style="edgeStyle=orthogonalEdgeStyle;rounded=0;orthogonalLoop=1;jettySize=auto;html=1;entryX=1;entryY=0.5;entryDx=0;entryDy=0;exitX=0.562;exitY=1.053;exitDx=0;exitDy=0;exitPerimeter=0;" edge="1" parent="1" source="cl1IgAbXvulnULGIFVQT-34" target="cl1IgAbXvulnULGIFVQT-50">
          <mxGeometry relative="1" as="geometry">
            <mxPoint x="614" y="1140" as="targetPoint" />
            <Array as="points">
              <mxPoint x="623" y="1085" />
            </Array>
          </mxGeometry>
        </mxCell>
        <mxCell id="cl1IgAbXvulnULGIFVQT-34" value="NÃO É POSSÍVEL ENTREGAR" style="strokeWidth=2;html=1;shape=mxgraph.flowchart.display;whiteSpace=wrap;" vertex="1" parent="1">
          <mxGeometry x="544" y="990" width="140" height="70" as="geometry" />
        </mxCell>
        <mxCell id="cl1IgAbXvulnULGIFVQT-47" value="" style="edgeStyle=orthogonalEdgeStyle;rounded=0;orthogonalLoop=1;jettySize=auto;html=1;entryX=0.543;entryY=0;entryDx=0;entryDy=0;entryPerimeter=0;" edge="1" parent="1" source="cl1IgAbXvulnULGIFVQT-35" target="cl1IgAbXvulnULGIFVQT-34">
          <mxGeometry relative="1" as="geometry" />
        </mxCell>
        <mxCell id="cl1IgAbXvulnULGIFVQT-49" value="" style="edgeStyle=orthogonalEdgeStyle;rounded=0;orthogonalLoop=1;jettySize=auto;html=1;entryX=0.528;entryY=-0.008;entryDx=0;entryDy=0;entryPerimeter=0;" edge="1" parent="1" source="cl1IgAbXvulnULGIFVQT-35" target="cl1IgAbXvulnULGIFVQT-36">
          <mxGeometry relative="1" as="geometry">
            <mxPoint x="256" y="965" as="targetPoint" />
          </mxGeometry>
        </mxCell>
        <mxCell id="cl1IgAbXvulnULGIFVQT-35" value="ESTADO = RJ?" style="rhombus;whiteSpace=wrap;html=1;" vertex="1" parent="1">
          <mxGeometry x="336" y="930" width="108" height="70" as="geometry" />
        </mxCell>
        <mxCell id="cl1IgAbXvulnULGIFVQT-52" value="" style="edgeStyle=orthogonalEdgeStyle;rounded=0;orthogonalLoop=1;jettySize=auto;html=1;entryX=0;entryY=0.5;entryDx=0;entryDy=0;exitX=0.5;exitY=1;exitDx=0;exitDy=0;exitPerimeter=0;" edge="1" parent="1" source="cl1IgAbXvulnULGIFVQT-36" target="cl1IgAbXvulnULGIFVQT-50">
          <mxGeometry relative="1" as="geometry">
            <mxPoint x="140" y="1155" as="targetPoint" />
          </mxGeometry>
        </mxCell>
        <mxCell id="cl1IgAbXvulnULGIFVQT-36" value="PRODUTO&lt;div&gt;VALOR&lt;/div&gt;&lt;div&gt;ESTADO&amp;nbsp;&lt;/div&gt;&lt;div&gt;FRETE&lt;/div&gt;" style="strokeWidth=2;html=1;shape=mxgraph.flowchart.display;whiteSpace=wrap;" vertex="1" parent="1">
          <mxGeometry x="70" y="990" width="140" height="70" as="geometry" />
        </mxCell>
        <mxCell id="cl1IgAbXvulnULGIFVQT-37" value="FIM" style="ellipse;whiteSpace=wrap;html=1;" vertex="1" parent="1">
          <mxGeometry x="326" y="1120" width="120" height="40" as="geometry" />
        </mxCell>
        <mxCell id="cl1IgAbXvulnULGIFVQT-55" value="" style="edgeStyle=orthogonalEdgeStyle;rounded=0;orthogonalLoop=1;jettySize=auto;html=1;" edge="1" parent="1" source="cl1IgAbXvulnULGIFVQT-50" target="cl1IgAbXvulnULGIFVQT-37">
          <mxGeometry relative="1" as="geometry" />
        </mxCell>
        <mxCell id="cl1IgAbXvulnULGIFVQT-50" value="" style="ellipse;whiteSpace=wrap;html=1;aspect=fixed;" vertex="1" parent="1">
          <mxGeometry x="371" y="1070" width="30" height="30" as="geometry" />
        </mxCell>
      </root>
    </mxGraphModel>
  </diagram>
</mxfile>
